<svg xmlns="http://www.w3.org/2000/svg" viewBox="0 0 1600 1000" role="img" aria-label="Cut paper space room">
  <rect width="1600" height="1000" fill="#241447"/>
  <circle cx="226" cy="152" r="5" fill="#fff6b7"/><circle cx="388" cy="82" r="7" fill="#fff6b7"/><circle cx="718" cy="132" r="5" fill="#fff6b7"/><circle cx="1142" cy="104" r="7" fill="#fff6b7"/><circle cx="1394" cy="188" r="5" fill="#fff6b7"/>
  <path d="M0 646c250-62 508-56 778 2 299 65 544 63 822-25v377H0Z" fill="#6650a4"/>
  <path d="M0 724c302-42 527-20 760 36 280 66 560 35 840-40v280H0Z" fill="#7d67c4"/>
  <circle cx="1304" cy="188" r="118" fill="#f5d67b"/>
  <circle cx="1266" cy="160" r="20" fill="#d0ad60"/><circle cx="1340" cy="220" r="34" fill="#d0ad60"/><circle cx="1364" cy="132" r="15" fill="#d0ad60"/>
  <g id="rocket">
    <path d="M336 622c6-170 78-288 168-346 82 67 125 189 104 352Z" fill="#f7f7ff"/>
    <path d="M504 276c36 30 64 72 82 123l-214 4c30-56 75-101 132-127Z" fill="#ff5d73"/>
    <circle cx="492" cy="470" r="52" fill="#64d2ff" stroke="#17324d" stroke-width="12"/>
    <path d="M338 610l-92 94 112-8M608 616l90 96-113-14" fill="#ffb703"/>
    <path d="M448 704l52 126 58-126Z" fill="#ff6b35"/>
  </g>
  <g id="planet">
    <circle cx="916" cy="354" r="106" fill="#3ddc97"/>
    <ellipse cx="916" cy="354" rx="168" ry="38" fill="none" stroke="#ffd166" stroke-width="28" transform="rotate(-15 916 354)"/>
    <circle cx="880" cy="320" r="19" fill="#2fb183"/><circle cx="950" cy="390" r="27" fill="#2fb183"/>
  </g>
  <g id="star">
    <path d="M1196 506l35 72 80 12-58 56 14 79-71-37-70 37 13-79-57-56 79-12Z" fill="#ffd166"/>
  </g>
  <g id="satellite">
    <rect x="914" y="650" width="116" height="76" rx="14" fill="#b7c9e2" transform="rotate(12 972 688)"/>
    <rect x="785" y="640" width="104" height="62" rx="6" fill="#4cc9f0" transform="rotate(12 837 671)"/>
    <rect x="1054" y="700" width="104" height="62" rx="6" fill="#4cc9f0" transform="rotate(12 1106 731)"/>
    <path d="M889 675l45 10M1026 702l35 8" stroke="#eae2b7" stroke-width="12" stroke-linecap="round"/>
  </g>
  <g id="astronaut">
    <circle cx="1352" cy="628" r="70" fill="#f7f7ff"/>
    <rect x="1288" y="692" width="128" height="142" rx="36" fill="#f7f7ff"/>
    <ellipse cx="1352" cy="630" rx="45" ry="35" fill="#64d2ff"/>
    <rect x="1252" y="714" width="48" height="96" rx="20" fill="#f7f7ff"/>
    <rect x="1404" y="714" width="48" height="96" rx="20" fill="#f7f7ff"/>
    <rect x="1324" y="832" width="38" height="72" rx="16" fill="#f7f7ff"/>
    <rect x="1376" y="832" width="38" height="72" rx="16" fill="#f7f7ff"/>
  </g>
  <g id="alien">
    <ellipse cx="198" cy="790" rx="88" ry="58" fill="#a7f070"/>
    <circle cx="156" cy="760" r="22" fill="#17324d"/><circle cx="236" cy="760" r="22" fill="#17324d"/>
    <path d="M176 816c28 18 54 18 80 0M162 732l-38-64M235 731l42-64" fill="none" stroke="#a7f070" stroke-width="12" stroke-linecap="round"/>
  </g>
</svg>
