<svg xmlns="http://www.w3.org/2000/svg" viewBox="0 0 1600 1000" role="img" aria-label="Cut paper classroom">
  <rect width="1600" height="1000" fill="#f7d9c4"/>
  <rect x="0" y="710" width="1600" height="290" fill="#d89b61"/>
  <rect x="158" y="110" width="780" height="424" rx="18" fill="#234b3a"/>
  <rect x="132" y="84" width="832" height="476" rx="26" fill="none" stroke="#8d5524" stroke-width="34"/>
  <path d="M220 460c160-58 306-60 438-8 78 31 154 33 230 6" fill="none" stroke="#f6f1d1" stroke-width="12" stroke-linecap="round"/>
  <g id="book">
    <path d="M1016 724c80-48 166-48 246 0v160c-80-42-166-42-246 0Z" fill="#4cc9f0"/>
    <path d="M1262 724c80-48 166-48 246 0v160c-80-42-166-42-246 0Z" fill="#ff6b6b"/>
    <path d="M1262 724v160" stroke="#17324d" stroke-width="10"/>
  </g>
  <g id="pencil">
    <path d="M302 764l380-96 30 58-350 168Z" fill="#ffd166"/>
    <path d="M682 668l86-24-56 82Z" fill="#ef476f"/>
    <path d="M302 764l60 130-100-62Z" fill="#17324d"/>
  </g>
  <g id="globe">
    <circle cx="1164" cy="368" r="102" fill="#64d2ff" stroke="#17324d" stroke-width="12"/>
    <path d="M1106 292c36 44 58 96 58 178M1224 294c-46 42-72 99-70 174M1074 374h180" stroke="#2a9d8f" stroke-width="12" stroke-linecap="round"/>
    <path d="M1164 470v80M1090 550h148" stroke="#17324d" stroke-width="12" stroke-linecap="round"/>
  </g>
  <g id="clock">
    <circle cx="1322" cy="178" r="78" fill="#fff3b0" stroke="#17324d" stroke-width="12"/>
    <path d="M1322 178v-48M1322 178l42 26" stroke="#17324d" stroke-width="12" stroke-linecap="round"/>
  </g>
  <g id="ruler">
    <rect x="1034" y="582" width="356" height="62" rx="12" fill="#ffcf4d" transform="rotate(-8 1212 613)"/>
    <path d="M1082 600v34M1134 594v24M1186 588v34M1238 582v24M1290 576v34M1342 570v24" stroke="#17324d" stroke-width="7" stroke-linecap="round"/>
  </g>
  <g id="paint">
    <path d="M206 604h238l-28 92H234Z" fill="#ffffff"/>
    <circle cx="254" cy="644" r="24" fill="#ef476f"/><circle cx="322" cy="644" r="24" fill="#ffd166"/><circle cx="390" cy="644" r="24" fill="#06d6a0"/>
  </g>
  <g id="backpack">
    <rect x="720" y="716" width="138" height="206" rx="38" fill="#9b5de5"/>
    <rect x="750" y="664" width="78" height="84" rx="28" fill="#9b5de5"/>
    <rect x="746" y="812" width="86" height="70" rx="18" fill="#f15bb5"/>
  </g>
  <g id="chair">
    <rect x="78" y="706" width="118" height="106" rx="18" fill="#ef476f"/>
    <path d="M106 812v112M174 812v112M86 752H42v164M190 752h46v164" stroke="#17324d" stroke-width="12" stroke-linecap="round"/>
  </g>
</svg>
