<svg xmlns="http://www.w3.org/2000/svg" viewBox="0 0 1600 1000">
  <rect width="1600" height="1000" fill="#f7d6e0"/><rect y="690" width="1600" height="310" fill="#f8c94a"/>
  <g><polygon points="520,180 575,245 520,310 465,245" fill="#89d4ff" stroke="#222" stroke-width="8"/><text x="465" y="370" font-size="42">estrela</text></g>
  <g><rect x="230" y="700" width="260" height="90" rx="16" fill="#ef476f" stroke="#222" stroke-width="8"/><circle cx="285" cy="805" r="32"/><circle cx="435" cy="805" r="32"/><text x="240" y="880" font-size="42">comboio</text></g>
  <g><circle cx="835" cy="465" r="80" fill="#b08968" stroke="#222" stroke-width="8"/><circle cx="770" cy="380" r="38" fill="#b08968" stroke="#222" stroke-width="8"/><circle cx="900" cy="380" r="38" fill="#b08968" stroke="#222" stroke-width="8"/><text x="790" y="650" font-size="42">urso</text></g>
  <g><ellipse cx="1160" cy="705" rx="110" ry="80" fill="#9d4edd" stroke="#222" stroke-width="8"/><rect x="1055" y="640" width="210" height="70" fill="#9d4edd"/><text x="1085" y="855" font-size="42">tambor</text></g>
  <g><polygon points="1220,170 1360,250 1230,350 1090,260" fill="#06d6a0" stroke="#222" stroke-width="8"/><line x1="1230" y1="350" x2="1160" y2="450" stroke="#222" stroke-width="6"/><text x="1135" y="150" font-size="42">papagaio</text></g>
</svg>
